Run_50002
nRows=4
nColumns=164

# SIMM Motion File Header:
name Run_50002
datacolumns 164
datarows 4
otherdata 1
range 0.17000000 0.20000000
endheader
time	pelvis_tilt	pelvis_list	pelvis_rotation	pelvis_tx	pelvis_ty	pelvis_tz	hip_flexion_r	hip_adduction_r	hip_rotation_r	knee_angle_r	ankle_angle_r	hip_flexion_l	hip_adduction_l	hip_rotation_l	knee_angle_l	ankle_angle_l	lumbar_extension	lumbar_bending	lumbar_rotation	arm_flex_r	arm_add_r	arm_rot_r	elbow_flex_r	pro_sup_r	arm_flex_l	arm_add_l	arm_rot_l	elbow_flex_l	pro_sup_l	subtalar_angle_r	mtp_angle_r	subtalar_angle_l	mtp_angle_l	wrist_flex_r	wrist_dev_r	wrist_flex_l	wrist_dev_l	LASI_tx	LASI_ty	LASI_tz	RASI_tx	RASI_ty	RASI_tz	LPSI_tx	LPSI_ty	LPSI_tz	RPSI_tx	RPSI_ty	RPSI_tz	RTH1_tx	RTH1_ty	RTH1_tz	RTH2_tx	RTH2_ty	RTH2_tz	RTH3_tx	RTH3_ty	RTH3_tz	LTH1_tx	LTH1_ty	LTH1_tz	LTH2_tx	LTH2_ty	LTH2_tz	LTH3_tx	LTH3_ty	LTH3_tz	RTB1_tx	RTB1_ty	RTB1_tz	RTB2_tx	RTB2_ty	RTB2_tz	RTB3_tx	RTB3_ty	RTB3_tz	LTB1_tx	LTB1_ty	LTB1_tz	LTB2_tx	LTB2_ty	LTB2_tz	LTB3_tx	LTB3_ty	LTB3_tz	RCAL_tx	RCAL_ty	RCAL_tz	RTOE_tx	RTOE_ty	RTOE_tz	RMT5_tx	RMT5_ty	RMT5_tz	LCAL_tx	LCAL_ty	LCAL_tz	LTOE_tx	LTOE_ty	LTOE_tz	LMT5_tx	LMT5_ty	LMT5_tz	LACR_tx	LACR_ty	LACR_tz	RACR_tx	RACR_ty	RACR_tz	CLAV_tx	CLAV_ty	CLAV_tz	C7_tx	C7_ty	C7_tz	RUA1_tx	RUA1_ty	RUA1_tz	RUA2_tx	RUA2_ty	RUA2_tz	RUA3_tx	RUA3_ty	RUA3_tz	RLEL_tx	RLEL_ty	RLEL_tz	RMEL_tx	RMEL_ty	RMEL_tz	LUA1_tx	LUA1_ty	LUA1_tz	LUA2_tx	LUA2_ty	LUA2_tz	LUA3_tx	LUA3_ty	LUA3_tz	LLEL_tx	LLEL_ty	LLEL_tz	LMEL_tx	LMEL_ty	LMEL_tz	RFAsuperior_tx	RFAsuperior_ty	RFAsuperior_tz	RFAradius_tx	RFAradius_ty	RFAradius_tz	RFAulna_tx	RFAulna_ty	RFAulna_tz	LFAsuperior_tx	LFAsuperior_ty	LFAsuperior_tz	LFAradius_tx	LFAradius_ty	LFAradius_tz	LFAulna_tx	LFAulna_ty	LFAulna_tz
      0.17000000	    -12.74463870	     -1.19363273	     -0.65547676	      1.02614619	      1.03952206	     -0.32878300	    -12.37984383	      3.86583347	     -0.88737539	    -28.17524726	    -18.57672092	     55.14043323	      1.96328113	     -2.77662246	    -45.03500059	      5.56975690	      3.89263815	      3.98332241	     11.88438411	    -16.09290567	    -22.65075371	     -5.57096430	    134.64170615	    126.23272360	    -60.49735313	    -18.95874868	    -15.43972882	    119.26081404	    100.07979064	      0.00000000	      0.00000000	      0.00000000	      0.00000000	      0.00000000	      0.00000000	      0.00000000	      0.00000000	      1.04059495	      1.07732975	     -0.45672299	      1.04318002	      1.07744183	     -0.19933884	      0.88383783	      1.13691856	     -0.38887218	      0.88657969	      1.13575626	     -0.27513605	      0.93972097	      0.96177721	     -0.15449630	      0.82787561	      0.85128173	     -0.18019207	      0.79969185	      0.69810764	     -0.19680102	      1.01268113	      0.96233141	     -0.51379384	      1.03827436	      0.80815316	     -0.45616249	      1.16676247	      0.74053604	     -0.45471659	      0.67770026	      0.46538819	     -0.27091909	      0.59060818	      0.49430554	     -0.20116060	      0.51416439	      0.36520537	     -0.28261611	      1.29394806	      0.55432183	     -0.39658751	      1.20397425	      0.44435861	     -0.43803824	      1.26240614	      0.33832957	     -0.37818929	      0.35549536	      0.39316628	     -0.27339236	      0.43002213	      0.16877010	     -0.33167741	      0.38139000	      0.18462132	     -0.23810816	      1.13995932	      0.19841110	     -0.33686595	      1.37621428	      0.20122511	     -0.34722267	      1.32803051	      0.14391474	     -0.42677267	      0.98041097	      1.58357001	     -0.46946882	      1.04012966	      1.54140496	     -0.16377666	      1.07260392	      1.51341294	     -0.29956306	      0.95098648	      1.58446981	     -0.30282042	      0.96561391	      1.43275748	     -0.08106748	      1.02391235	      1.38114054	     -0.06918942	      0.98043375	      1.30108459	     -0.01080624	      0.97019387	      1.23474877	      0.01761453	      0.94784131	      1.20676812	     -0.06758236	      0.85507440	      1.54900033	     -0.49923046	      0.84088691	      1.48351650	     -0.55296734	      0.74231734	      1.47084729	     -0.55950140	      0.69155217	      1.42270809	     -0.58312440	      0.68432666	      1.39136735	     -0.49862104	      1.06622716	      1.24465342	     -0.03272589	      1.14758040	      1.30328746	     -0.18117801	      1.18640597	      1.26322766	     -0.13857729	      0.72793780	      1.34855613	     -0.59889769	      0.89284645	      1.26581402	     -0.55135154	      0.85499420	      1.21593562	     -0.58686281
      0.18000000	    -12.34576683	     -1.29367779	     -0.22343345	      1.02633334	      1.04086599	     -0.32948784	    -11.98207549	      4.21313820	     -0.01239950	    -34.57075875	    -16.25816996	     52.35336399	      2.98834567	     -1.53487009	    -36.90480912	      3.66178407	      3.32610342	      3.86369243	     11.53959924	    -16.88817982	    -22.90567586	     -5.65642013	    133.65883344	    126.92489927	    -60.90367768	    -18.26538132	    -16.79777774	    119.76423127	    100.49066758	      0.00000000	      0.00000000	      0.00000000	      0.00000000	      0.00000000	      0.00000000	      0.00000000	      0.00000000	      1.03963116	      1.07845673	     -0.45658153	      1.04340983	      1.07833088	     -0.20085043	      0.88295486	      1.13682607	     -0.38815421	      0.88617516	      1.13689419	     -0.27464759	      0.94399203	      0.96138973	     -0.15326688	      0.83376973	      0.84835642	     -0.17843045	      0.80778669	      0.69466085	     -0.19719144	      1.01093235	      0.96125255	     -0.51466017	      1.03342843	      0.80632096	     -0.45495381	      1.15840997	      0.73310516	     -0.45186225	      0.67197267	      0.47159881	     -0.27076808	      0.58862163	      0.50949807	     -0.20109879	      0.49955513	      0.38815147	     -0.28066607	      1.29081716	      0.54859113	     -0.39191991	      1.21411803	      0.43085800	     -0.43593845	      1.27889386	      0.33141626	     -0.37311808	      0.34225152	      0.42956783	     -0.26918672	      0.40225638	      0.20156896	     -0.32977972	      0.35570823	      0.21947876	     -0.23603027	      1.17035637	      0.18168020	     -0.33573600	      1.40506282	      0.20485953	     -0.33637504	      1.36593647	      0.13885829	     -0.41411599	      0.98079606	      1.58478394	     -0.47087344	      1.04151602	      1.54264243	     -0.16527541	      1.07311952	      1.51451315	     -0.30115627	      0.95242811	      1.58628760	     -0.30404313	      0.96593340	      1.43560259	     -0.08212988	      1.02336957	      1.38340982	     -0.06948699	      0.97919950	      1.30441308	     -0.01041952	      0.96762992	      1.23908904	      0.01905708	      0.94454998	      1.21074659	     -0.06560106	      0.85524008	      1.55085274	     -0.49927813	      0.84003390	      1.48515617	     -0.55193787	      0.74106544	      1.47384889	     -0.55691507	      0.68965340	      1.42550310	     -0.57955446	      0.68407796	      1.39321196	     -0.49527155	      1.06453561	      1.24428666	     -0.03107662	      1.14696678	      1.29786530	     -0.18107940	      1.18472540	      1.25819104	     -0.13719055	      0.72589136	      1.35191956	     -0.59739135	      0.89195803	      1.26882595	     -0.55355008	      0.85368894	      1.21960578	     -0.58939494
      0.19000000	    -11.78458951	     -1.28029811	      0.26551759	      1.02680695	      1.04155887	     -0.32998953	    -11.66624322	      4.51818253	      0.48142932	    -41.05168692	    -14.76361308	     49.08270456	      4.02651268	      0.30400969	    -28.87714145	      1.90518475	      2.60090844	      3.58375714	     11.10008893	    -17.90526609	    -22.99002671	     -6.07040598	    132.22056489	    127.32426398	    -61.10975784	    -17.70232599	    -18.02345410	    120.18305354	    100.78815795	      0.00000000	      0.00000000	      0.00000000	      0.00000000	      0.00000000	      0.00000000	      0.00000000	      0.00000000	      1.03876867	      1.07952370	     -0.45625794	      1.04388894	      1.07814324	     -0.20204626	      0.88182151	      1.13614552	     -0.38691985	      0.88601018	      1.13698123	     -0.27383172	      0.94853021	      0.96047078	     -0.15252315	      0.83993118	      0.84489378	     -0.17700168	      0.81600185	      0.69075049	     -0.19762805	      1.00969854	      0.96076882	     -0.51463766	      1.02777371	      0.80374604	     -0.45368923	      1.14880252	      0.72444875	     -0.44983557	      0.66866710	      0.47731218	     -0.27099833	      0.58953250	      0.52392649	     -0.20151726	      0.48825773	      0.41118231	     -0.27863893	      1.28624727	      0.54212887	     -0.38777950	      1.22069512	      0.41843729	     -0.43348091	      1.29195857	      0.32487007	     -0.36889006	      0.33420666	      0.46677107	     -0.26478228	      0.37672938	      0.23560324	     -0.32781444	      0.33277516	      0.25593811	     -0.23382661	      1.19615582	      0.16660386	     -0.33533297	      1.42802545	      0.20883317	     -0.32503978	      1.39773462	      0.13734693	     -0.40325932	      0.98130376	      1.58526171	     -0.47213040	      1.04284503	      1.54302790	     -0.16692089	      1.07354082	      1.51481841	     -0.30260127	      0.95367492	      1.58729393	     -0.30539659	      0.96572495	      1.43821813	     -0.08292476	      1.02221965	      1.38507402	     -0.06977906	      0.97662541	      1.30736940	     -0.01018617	      0.96329225	      1.24303002	      0.02039033	      0.93994500	      1.21433166	     -0.06383010	      0.85556579	      1.55172040	     -0.49975665	      0.83955146	      1.48562111	     -0.55125073	      0.74037311	      1.47509439	     -0.55498738	      0.68855029	      1.42638860	     -0.57674946	      0.68454644	      1.39311272	     -0.49288434	      1.06128103	      1.24275454	     -0.02856503	      1.14689794	      1.28984243	     -0.17959599	      1.18249778	      1.25019105	     -0.13390625	      0.72482567	      1.35342482	     -0.59638184	      0.89193716	      1.27018597	     -0.55569275	      0.85329133	      1.22149311	     -0.59176295
      0.20000000	    -11.21443225	     -1.18720330	      0.87210295	      1.02740506	      1.04120375	     -0.33021840	    -11.03229586	      4.81005549	      0.51866664	    -47.96372263	    -13.96177631	     45.74846142	      4.95429594	      2.38937482	    -21.72849257	      0.84461515	      1.90321156	      3.18434567	     10.45683892	    -19.21189518	    -22.82610090	     -6.97506498	    130.09934839	    127.21022711	    -60.99271151	    -17.32039767	    -19.02946365	    120.40320549	    100.90240095	      0.00000000	      0.00000000	      0.00000000	      0.00000000	      0.00000000	      0.00000000	      0.00000000	      0.00000000	      1.03790256	      1.08014504	     -0.45548006	      1.04487724	      1.07637485	     -0.20275760	      0.88055613	      1.13461727	     -0.38510627	      0.88635029	      1.13548062	     -0.27248589	      0.95313605	      0.95859940	     -0.15237929	      0.84624174	      0.84060372	     -0.17602289	      0.82434069	      0.68614310	     -0.19800311	      1.00874087	      0.96032096	     -0.51335679	      1.02122228	      0.80011533	     -0.45257643	      1.13788056	      0.71441143	     -0.44916975	      0.66889063	      0.48220661	     -0.27159851	      0.59475216	      0.53677571	     -0.20234197	      0.48218266	      0.43412299	     -0.27674790	      1.27961705	      0.53459968	     -0.38467001	      1.22187716	      0.40726505	     -0.43044398	      1.29947673	      0.31864891	     -0.36565835	      0.33416629	      0.50434110	     -0.26021695	      0.35520934	      0.27118904	     -0.32591010	      0.31474415	      0.29425291	     -0.23144977	      1.21451060	      0.15398929	     -0.33465285	      1.44221825	      0.21255446	     -0.31423108	      1.41980966	      0.13888001	     -0.39453176	      0.98193270	      1.58454550	     -0.47328400	      1.04401886	      1.54205940	     -0.16864251	      1.07384722	      1.51392034	     -0.30384794	      0.95461435	      1.58705607	     -0.30691138	      0.96452763	      1.44025229	     -0.08356707	      1.01996691	      1.38586342	     -0.06986676	      0.97207630	      1.30972025	     -0.01006858	      0.95645405	      1.24630097	      0.02163601	      0.93354489	      1.21721633	     -0.06229407	      0.85602781	      1.55103899	     -0.50084063	      0.83957179	      1.48424153	     -0.55111410	      0.74045782	      1.47360520	     -0.55412226	      0.68857625	      1.42434812	     -0.57514437	      0.68593271	      1.39018416	     -0.49182985	      1.05565815	      1.23958802	     -0.02486079	      1.14736229	      1.27822295	     -0.17563364	      1.17926255	      1.23817167	     -0.12762782	      0.72513985	      1.35207598	     -0.59612131	      0.89323163	      1.26914576	     -0.55781872	      0.85431288	      1.22077500	     -0.59397926
